<svg xmlns="http://www.w3.org/2000/svg" xmlns:xlink="http://www.w3.org/1999/xlink" style="width:24px;webkit-logical-width:24px;webkit-logical-height:24px;user-select:none;transform-origin:12px 12px;r:0;perspective-origin:12px 12px;overflow-y:hidden;overflow-x:hidden;inline-size:24px;height:24px;d:none;block-size:24px;background:0% 0%/auto padding-box border-box" class="ldi-2s8r4r" display="block" overflow="hidden" pointer-events="all" preserveAspectRatio="xMidYMid" viewBox="0 0 100 100"><svg xmlns="http://www.w3.org/2000/svg" style="x:0;user-select:none;transform-origin:50px 50px;transform:none;r:0;perspective-origin:0 0;overflow-y:hidden;overflow-x:hidden" id="Layer_1" display="block" overflow="hidden" viewBox="0 0 100 100"><g style="x:0;user-select:none;transform-origin:50px 50px;transform:matrix(1,0,0,1,0,0);r:0;perspective-origin:0 0"><g style="y:0;x:0;user-select:none;transform-origin:50px 50px;transform:none;r:0;perspective-origin:0 0;d:none" class="ld"><g style="y:0;x:0;user-select:none;transform-origin:50px 50px;transform:none;r:0;perspective-origin:0 0;d:none"><path style="user-select:none;r:0;perspective-origin:0 0;d:path('M 21.3 31.8 c 0 11.9 0.5 23.9 5.6 33 c 5.3 9.4 15.6 16.2 23 18.2 c 7.2 -2.1 17.3 -9.1 22.5 -18.3 c 5.2 -9.1 6 -21.1 6.1 -32.9 c -12.4 -1.3 -23.9 -9.3 -28.6 -13 C 45.3 22.6 33.7 30.5 21.3 31.8 Z')" fill="#24c33e" d="M21.3 31.8c0 11.9.5 23.9 5.6 33 5.3 9.4 15.6 16.2 23 18.2 7.2-2.1 17.3-9.1 22.5-18.3 5.2-9.1 6-21.1 6.1-32.9-12.4-1.3-23.9-9.3-28.6-13-4.6 3.8-16.2 11.7-28.6 13z"/></g><g style="x:0;user-select:none;transform-origin:50px 50px;transform:none;r:0;perspective-origin:0 0"><g style="y:0;x:0;user-select:none;transform-origin:50px 50px;transform:none;r:0;perspective-origin:0 0;d:none"><path style="user-select:none;r:0;perspective-origin:0 0" fill="#f9ffce" stroke-width="0" d="M46 69.1L28.8 51.9l5.6-5.6L46 58l19.6-19.6 5.6 5.6z"/></g></g><g style="y:0;x:0;user-select:none;transform-origin:50px 50px;transform:none;r:0;perspective-origin:0 0;d:none"><path style="user-select:none;r:0;perspective-origin:0 0;d:path('M 52.2 12 L 50 10 l -2.2 2 C 47.6 12.1 32.5 25.2 18 25.2 h -3.4 v 3.4 c 0 13.1 0 28 6.4 39.5 c 6.5 11.5 19.1 19.6 28.3 21.7 l 0.8 0.2 l 0.8 -0.2 c 8.8 -2.2 21.1 -10.4 27.5 -21.7 c 6.5 -11.4 7.1 -25.7 7.1 -39.4 v -3.4 H 82 C 67.5 25.2 52.4 12.2 52.2 12 Z M 72.5 64.7 C 67.2 73.9 57.1 80.9 49.9 83 c -7.4 -2 -17.8 -8.8 -23 -18.2 c -5.1 -9.1 -5.5 -21.1 -5.6 -33 c 12.4 -1.3 23.9 -9.3 28.7 -13 c 4.7 3.7 16.3 11.6 28.6 13 C 78.5 43.6 77.7 55.6 72.5 64.7 Z')" fill="#368743" d="M52.2 12L50 10l-2.2 2c-.2.1-15.3 13.2-29.8 13.2h-3.4v3.4c0 13.1 0 28 6.4 39.5 6.5 11.5 19.1 19.6 28.3 21.7l.8.2.8-.2c8.8-2.2 21.1-10.4 27.5-21.7 6.5-11.4 7.1-25.7 7.1-39.4v-3.4H82C67.5 25.2 52.4 12.2 52.2 12zm20.3 52.7C67.2 73.9 57.1 80.9 49.9 83c-7.4-2-17.8-8.8-23-18.2-5.1-9.1-5.5-21.1-5.6-33 12.4-1.3 23.9-9.3 28.7-13 4.7 3.7 16.3 11.6 28.6 13-.1 11.8-.9 23.8-6.1 32.9z"/></g></g></g></svg></svg>