<svg xmlns="http://www.w3.org/2000/svg" viewBox="0 0 76 16">
  <path d="M68 16H8C4 16 .9 12.7.9 8.7V7.3C.8 3.3 4 0 8 0h59.8c4 0 7.3 3.3 7.3 7.3v1.4c0 4-3.2 7.3-7.3 7.3z" fill="#7ec34a"/>
  <path d="M66.9 7.2h-.3v-1a3.2 3.2 0 0 0-6.4 0v1h-.3c-.4 0-.8.4-.8.8v4.3c0 .4.4.8.8.8h7c.4 0 .8-.4.8-.8V8c0-.4-.4-.8-.8-.8zm-2.8 4c0 .3 0 .4-.2.4h-1c-.1 0-.3-.1-.2-.3L63 10a.8.8 0 1 1 .8 0l.3 1.2zm1-4h-3.4v-1a1.7 1.7 0 0 1 3.4 0v1zM12.7 6h-1.3v-.3c0-.3 0-.6-.2-.8-.1-.2-.4-.3-.7-.3H10l-.2.3-.2.4v.9l.1.3.2.3.4.2 1 .4.8.4.4.5.2.7a7 7 0 0 1 0 2c-.1.4-.3.6-.5.9-.1.2-.4.4-.7.5-.3.2-.6.2-1 .2a2.4 2.4 0 0 1-1.7-.6 2.2 2.2 0 0 1-.6-1.5V10h1.3v.4l.2.6c.2.2.4.3.8.3h.5l.3-.3.1-.5a5.9 5.9 0 0 0 0-1.2l-.1-.3-.2-.3c-.1 0-.3 0-.4-.2l-1-.3c-.6-.3-1-.6-1.1-1-.2-.4-.3-.8-.3-1.4l.1-1 .4-.8.7-.6 1-.2a2.2 2.2 0 0 1 2 1.4c.2.2.2.5.2.7V6zM18 6h-1.3v-.3c0-.3 0-.6-.2-.8a1 1 0 0 0-.7-.3h-.5L15 5l-.1.4v1.2l.3.3.4.2 1 .4.8.4.4.5.2.7a7 7 0 0 1 0 2l-.5.9-.7.5c-.3.2-.6.2-1 .2A2.4 2.4 0 0 1 14 12a2.2 2.2 0 0 1-.6-1.5V10h1.3v.4c0 .2 0 .4.2.6.2.2.4.3.7.3h.6l.3-.3v-.5a5.9 5.9 0 0 0 0-1.2V9l-.3-.3-.4-.2-1-.3c-.5-.3-.9-.6-1-1-.3-.4-.4-.8-.4-1.4 0-.4 0-.7.2-1 0-.3.2-.6.4-.8l.7-.6 1-.2a2.2 2.2 0 0 1 2 1.4c.2.2.2.5.2.7V6zm1-2.7h1.3v8H23v1.3h-4V3.3zM29.5 7h-1.1v-.3c0-.2 0-.4-.2-.6s-.3-.3-.6-.3h-.4l-.2.3-.1.3v1.1l.2.2.4.2.8.3c.3 0 .5.2.6.3l.4.5.2.6v1.7c0 .3-.3.5-.4.7l-.6.5-1 .1a2 2 0 0 1-1.3-.5 1.8 1.8 0 0 1-.5-1.3v-.4h1v.3l.3.6.6.2h.4l.3-.3v-.4a4.8 4.8 0 0 0 0-1v-.3l-.2-.2-.4-.1-.8-.4c-.4-.2-.8-.4-1-.8s-.2-.7-.2-1.2l.1-.8.4-.7.6-.5.8-.1a1.9 1.9 0 0 1 1.8 1.1l.1.6V7zm.6-2.3h3.4v1.1h-2.2v2.3h1.9v1h-2v2.4h2.3v1H30V4.8zm7.4 6.1a1.8 1.8 0 0 1-.5 1.3l-.5.4-.7.1H35a1.6 1.6 0 0 1-1-1 2 2 0 0 1-.2-.8V6.5l.1-.7a1.7 1.7 0 0 1 1-1 2 2 0 0 1 1.5 0 1.7 1.7 0 0 1 1 1V7h-1v-.4l-.3-.6a.6.6 0 0 0-.5-.2c-.2 0-.4 0-.5.3l-.2.6v4c0 .2 0 .4.2.6l.5.2h.3l.2-.1.2-.3v-.8h1.1v.5zm4.4 0c0 .3 0 .5-.2.7l-.4.6a1.8 1.8 0 0 1-1.2.5l-.8-.1a1.8 1.8 0 0 1-1-1V4.8h1v5.9c0 .3.1.5.3.6l.5.2c.1 0 .3 0 .4-.2l.2-.6v-6H42v6.1zm.8-6.1h1.8c1.3 0 2 .8 2 2.3 0 .5 0 .9-.2 1.2s-.4.6-.8.8l1.2 3.6h-1.2l-1-3.4h-.7v3.4h-1.1V4.7zm1.1 3.5H45l.3-.3.1-.4a3.8 3.8 0 0 0 0-1l-.1-.4-.3-.2-.5-.1h-.6v2.4zm3.4-3.5h3.3v1.1h-2.2v2.3h2v1h-2v2.4h2.2v1h-3.3V4.8zm3.8 0h1.7c.6 0 1.1.2 1.4.6.4.3.6.8.6 1.5v3.6c0 .8-.2 1.3-.6 1.6-.3.4-.8.6-1.5.6H51V4.7zm1.1 6.8h.6c.3 0 .5 0 .6-.2.2-.2.2-.4.2-.8V6.8c0-.3 0-.6-.2-.8l-.6-.2H52v5.7z" fill="#fff"/>
</svg>
