<svg xmlns="http://www.w3.org/2000/svg" viewBox="0 0 76 16">
  <path d="M68 16H8C4 16 .9 12.7.9 8.7V7.3C.8 3.3 4 0 8 0h59.8c4 0 7.3 3.3 7.3 7.3v1.4c0 4-3.2 7.3-7.3 7.3z" fill="#f58220"/>
  <path d="M48.1 7.8v-.9s.2-2.9-3-2.9h-2.9S40 4 40 6v7.2s0 .3.3.3h1.2c.3 0 .3-.3.3-.3V7.1s-.2-1.3 1.5-1.3h2s1.1-.2 1.1 1.1v1.3s0 .8-.9.8h-.4l-.2-.1v-.5c0-.1 0-.2-.2 0l-2.4 1.3s-.3.2 0 .4l2.3 1.3c.1.1.2-.1.2-.1v-.4l.2-.1h.6s2.5 0 2.5-3zM26.8 5.2c0-.1.2 0 .2 0l.5.2.2-.1-.3-2.5c0-.4-.3-.3-.4-.2l-2.5 1V4l.5.2v.2c-.4.4-1.3 1.4-2.8 2a7 7 0 0 1-3.2.4c-.2 0-.3 0-.3.2l-.3 1s0 .2.2.3H21a8 8 0 0 0 1.8-.4l.2-.1v5.3c0 .2 0 .3.2.3h1.4c.1 0 .3-.1.3-.3V7c.4-.3 1-.7 2-1.8zm3.2 3c0-.1-.2-.3-.4-.3H29c-.2 0-.4.2-.4.3l-2.3 5c0 .2 0 .3.2.3h1.3l.4-.3 1-2.3c0-.2.1-.2.2 0l1 2.3c0 .2.2.3.3.3H32c.1 0 .2-.1.2-.3l-2.2-5zm20.9 0l-.4-.3h-.7l-.4.3-2.2 5c0 .2 0 .3.2.3h1.2c.2 0 .4-.1.4-.3l1-2.3c0-.2.1-.2.2 0l1 2.3c0 .2.2.3.4.3h1.2c.2 0 .3-.1.2-.3l-2.1-5zm6.6-.1A.6.6 0 0 0 57 8h-.7c-.2 0-.4.1-.5.3l-.4.7-.2.5-.4.6-.6-1-.5-.8c0-.2-.2-.3-.4-.3h-.7l-.5.2v.4l2 3.2v1.6c0 .1 0 .2.2.2h1l.2-.1v-1.7l2-3.2V8zM36.4 8H35s-1.7 0-1.7 1.8v3.5s0 .2.2.2h1l.1-.2v-1h2.2c.5 0 1.7-.1 1.7-2v-.1s.2-2.2-2-2.2zm.7 2.3s0 .7-.7.7h-1.9v-.7s0-1 1.2-1h.3s1.1-.1 1.1.9v.1z" fill="#feffff"/>
</svg>
