<?xml version="1.0" encoding="utf-8"?><svg class="ldi-ji88sl" width="100%" height="100%" xmlns="http://www.w3.org/2000/svg" xmlns:xlink="http://www.w3.org/1999/xlink" viewBox="0 0 100 100" preserveAspectRatio="xMidYMid"><svg version="1.1" id="Layer_1" xmlns="http://www.w3.org/2000/svg" xmlns:xlink="http://www.w3.org/1999/xlink" x="0px" y="0px" viewBox="0 0 100 100" xml:space="preserve" class=""><g class=""><g class=""><style type="text/css" class="ld">.st0{fill:#D52729;} .st1{fill:#FFFFFF;} .st2{fill:#604393;} .st3{fill:#E96E28;} .st4{fill:#95C243;} .st5{fill:#35455B;} .st6{fill:#3B97D3;} .st7{fill:#E97432;} .st8{fill:#000101;} .st9{fill:#D14A26;} .st10{fill:#23AAD6;} .st11{fill:#5AB3DA;} .st12{fill:#7AC250;} .st13{fill:#28AADD;} .st14{fill:#17AB82;} .st15{fill:#1FA7CB;} .st16{fill:#1476B7;} .st17{fill:#4E6F94;} .st18{fill:#45B649;} .st19{fill:#289646;} .st20{fill:#529D44;} .st21{fill:#A4A4A4;} .st22{fill:#1B93BC;} .st23{fill:#2971B9;} .st24{fill:#454545;} .st25{fill:#37B7BF;} .st26{fill:#1C783C;} .st27{fill:#CCCF2A;} .st28{fill:#01575C;} .st29{fill:#277DBF;} .st30{fill:#D82D26;} .st31{fill:#C72826;} .st32{fill:#F04F22;} .st33{fill:#01353C;} .st34{fill:#9AB77A;} .st35{fill:#97BD44;} .st36{fill:#3562AC;} .st37{fill:#252525;} .st38{fill:#1074B3;} .st39{fill:#18A882;} .st40{fill:#EEBF23;} .st41{fill:#E46846;} .st42{fill:#E37156;} .st43{fill:#292929;} .st44{fill:#615A9E;} .st45{fill:#075495;} .st46{fill:#F1A329;} .st47{fill:#45B07F;} .st48{fill:#34485C;} .st49{fill:#2F99D0;} .st50{fill:none;} .st51{fill:#F0C142;} .st52{fill:#2A2D2C;} .st53{fill:#712A88;} .st54{fill:#E76529;} .st55{fill:#C42626;stroke:#C42626;stroke-miterlimit:10;} .st56{fill:#FFFFFF;stroke:#FFFFFF;stroke-miterlimit:10;} .st57{fill:#24AED5;}</style>
<g class="ld"><path class="st6" d="M89.845,25.225c-2.948,1.299-6.096,2.184-9.419,2.583c3.383-2.034,5.986-5.247,7.21-9.074 c-3.168,1.849-6.681,3.198-10.418,3.948c-2.988-3.198-7.245-5.197-11.973-5.197c-9.054,0-16.4,7.345-16.4,16.39 c0,1.299,0.15,2.548,0.425,3.748c-13.631-0.65-25.719-7.196-33.809-17.089c-1.419,2.403-2.219,5.202-2.219,8.25 c0,5.696,2.898,10.708,7.295,13.651c-2.688-0.085-5.222-0.824-7.43-2.049v0.2c0,7.945,5.646,14.581,13.157,16.09 c-1.379,0.37-2.828,0.57-4.322,0.57c-1.049,0-2.049-0.1-3.048-0.29c2.099,6.516,8.145,11.258,15.34,11.393 c-5.597,4.397-12.692,7.016-20.337,7.016c-1.299,0-2.598-0.075-3.898-0.225c7.295,4.647,15.89,7.365,25.184,7.365 c30.181,0,46.671-24.984,46.671-46.621c0-0.7,0-1.399-0.05-2.099c3.198-2.299,5.996-5.197,8.195-8.495L89.845,25.225z" fill="rgb(59, 151, 211)"></path></g>
<metadata xmlns:d="https://loading.io/stock/" class="ld"><d:name class="ld">twitter</d:name>


<d:tags class="ld">twitter,brand</d:tags>


<d:license class="ld">cc0</d:license>


<d:slug class="ld">ji88sl</d:slug></metadata></g></g>
<style type="text/css" class="ld">path,ellipse,circle,rect,polygon,polyline,line { stroke-width: 0; }</style></svg></svg>